<svg id="pineglade-logo" xmlns="http://www.w3.org/2000/svg" viewBox="0 0 800 800"><rect x="628.1" y="546.8" fill="#a98b69" width="21.5" height="202.2"/><path fill="#187268" d="m704.2 492.6 5.3-24.6-33.3-28.7 2.4-22.5-46.1-31.8-33.3 31.8 2.4 22.5-39.1 35.7 17.6 32.6-37.6 11.4c45.9 67.4 96.4 31.2 96.4 31.2s38.7 43 91.1-39.4l-25.8-18.2z"/><rect x="150.3" y="546.8" transform="rotate(-180 161.1 647.91)" fill="#a98b69" width="21.5" height="202.2"/><path fill="#187268" d="M95.8 492.6 90.5 468l33.3-28.7-2.4-22.5 46.1-31.8 33.3 31.8-2.4 22.5 39.1 35.7-17.6 32.6 37.6 11.4c-45.9 67.4-96.4 31.2-96.4 31.2s-38.7 43-91.1-39.4l25.8-18.2z"/><rect x="372.6" y="358.8" transform="rotate(-180 394.59 565.16)" fill="#a98b69" width="43.9" height="412.7"/><path fill="#187268" d="m261.3 248.2-12.7-69.7 69.9-39.2-4.9-45.9 94-64.9 67.9 64.9-4.9 45.9 70.9 42.2-20 82 69.7 38.5c-93.7 137.6-196.8 63.6-196.8 63.6s-79 87.8-186-80.4l52.9-37z"/></svg>