<svg version="1.0" xmlns="http://www.w3.org/2000/svg" width="933.33" height="933.33" viewBox="0 0 700 700" preserveAspectRatio="xMidYMid meet"><g transform="matrix(.1 0 0 -.1 0 700)" fill="#000000" stroke="none"><path d="M3500 6705c-36-24-72-50-81-56s-164-114-345-239c-181-126-328-232-328-237 1-4 5-46 9-93 3-46 8-87 10-90 1-3 6-42 9-87 4-46 9-92 11-102 3-16-12-29-73-62-42-23-90-50-107-59-158-90-367-207-397-223-20-11-34-25-32-31 4-12 51-265 60-323 3-21 7-45 9-53 3-8 7-33 10-55 4-22 8-47 10-55 4-13 14-66 16-88 3-22-10-35-93-92-51-36-97-68-103-73-5-4-65-46-132-93-68-47-123-89-123-93s14-27 30-49c17-23 30-44 30-47 0-14 188-260 260-339 200-224 424-380 625-437 120-34 291-32 398 4 42 15 80 27 82 27 3 0 5-767 5-1705V250h385v1725c0 949 1 1725 2 1725s22-6 45-14c59-20 115-34 162-42 21-3 48-8 60-10 26-5 221-5 257 0 168 25 336 90 484 189 173 115 382 329 499 508l17 27-108 60c-59 33-130 72-158 87-192 106-322 179-331 186-7 6 0 51 24 146 18 76 57 236 86 355l53 217-36 24c-20 13-159 97-310 187l-273 162 7 67c3 36 8 80 10 96 3 17 7 57 10 90s8 79 11 103l6 42-83 81c-75 71-347 332-467 447-24 23-45 42-46 42 0 0-30-20-66-45z"/><path d="M1442 3618c-7-7-95-69-195-138l-182-125 3-60c2-33 7-77 12-98l8-38-146-125c-93-79-146-132-145-143 7-43 16-91 28-143l13-58-61-43c-34-25-83-59-109-76-27-18-48-37-48-43 0-21 118-176 190-249 81-82 159-137 237-167 64-24 176-28 225-8 21 9 39 16 40 16 2 0 3-374 3-831 0-493 4-833 9-837 17-10 176-7 177 3 1 6 3 381 4 835s3 831 4 838c1 9 6 10 20 2 62-33 238-34 333-2 116 40 229 125 328 249 45 56 58 78 48 84-7 4-78 26-158 50s-147 45-150 46c-4 4 2 17 92 182l57 105-22 18c-11 11-46 42-77 71s-98 90-149 137l-93 85 6 80c4 44 9 87 12 96 3 10-27 46-83 101-125 122-207 198-213 198-3 0-12-6-18-12z"/><path d="M5474 3573c-182-171-234-226-230-242 3-9 8-52 12-97l6-80-164-149c-89-82-164-155-166-162s26-66 61-131c36-65 67-127 71-138 5-17-10-24-143-63-82-24-154-47-161-51-25-15 143-199 242-264 122-81 282-112 414-81 32 8 64 14 69 15 7 0 10-272 10-840 0-740 2-840 15-841 83-5 163-2 168 6 4 6 7 380 7 833 0 452 2 823 5 824 3 0 22-5 44-12 60-19 179-8 247 23 96 45 200 133 300 254 29 35 99 142 99 150 0 5-50 44-110 87-88 62-110 82-105 96 3 10 7 27 9 37s7 29 10 43 8 36 10 50c3 14 7 34 10 46 3 16-12 35-67 82-40 33-84 71-98 84-15 13-48 41-74 62l-47 40 6 70c4 39 9 83 11 98 2 16-4 32-13 41-15 13-352 244-378 260-6 3-37-19-70-50z"/></g></svg>